<svg xmlns="http://www.w3.org/2000/svg" viewBox="0 0 36 24" role="img">
  <rect width="36" height="24" rx="3" fill="#de2910"/>
  <g fill="#ffde00">
    <path d="m8 4 1 2.9h3.1L9.6 8.7l1 2.9L8 9.8l-2.6 1.8 1-2.9-2.5-1.8H7z"/>
    <path d="m16 4.2.5 1.2 1.3.1-1 .8.3 1.3-1.1-.7-1.1.7.4-1.3-1.1-.8 1.3-.1zM20.1 7.7l.5 1.2 1.3.1-1 .8.3 1.3-1.1-.7-1.1.7.4-1.3-1.1-.8 1.3-.1zM20.1 13l.5 1.2 1.3.1-1 .8.3 1.3-1.1-.7-1.1.7.4-1.3-1.1-.8 1.3-.1zM16 16.6l.5 1.2 1.3.1-1 .8.3 1.3-1.1-.7-1.1.7.4-1.3-1.1-.8 1.3-.1z"/>
  </g>
</svg>
